<svg xmlns="http://www.w3.org/2000/svg" xmlns:xlink="http://www.w3.org/1999/xlink" contentStyleType="text/css" height="885px" preserveAspectRatio="none" style="width:1715px;height:885px;background:#FFFFFF;" version="1.1" viewBox="0 0 1715 885" width="1715px" zoomAndPan="magnify"><title>Spectracs &#8212; Doc-automation ("Director") harness</title><defs/><g><text fill="#000000" font-family="Sans" font-size="14" font-weight="bold" lengthAdjust="spacing" textLength="391.4189" x="654.7905" y="22.9951">Spectracs &#8212; Doc-automation ("Director") harness</text><text fill="#000000" font-family="Sans" font-size="14" font-weight="bold" lengthAdjust="spacing" textLength="595.8682" x="552.5659" y="39.292">two processes, one local-UDP seam + a visible mouse (as-built 2026-07-12)</text><!--cluster Director process  (automation/, dev-only)--><g id="cluster_Director process  (automation/, dev-only)"><path d="M8.5,59.5938 L336.3604,59.5938 A3.75,3.75 0 0 1 338.8604,62.0938 L345.8604,81.8906 L611.5,81.8906 A2.5,2.5 0 0 1 614,84.3906 L614,482.0938 A2.5,2.5 0 0 1 611.5,484.5938 L8.5,484.5938 A2.5,2.5 0 0 1 6,482.0938 L6,62.0938 A2.5,2.5 0 0 1 8.5,59.5938 " fill="#E3F2FD" style="stroke:#5A5A5A;stroke-width:1.5;"/><line style="stroke:#5A5A5A;stroke-width:1.5;" x1="6" x2="345.8604" y1="81.8906" y2="81.8906"/><text fill="#222222" font-family="Sans" font-size="14" font-weight="bold" lengthAdjust="spacing" textLength="326.8604" x="10" y="74.5889">Director process  (automation/, dev-only)</text></g><!--cluster Spectracs  - -doc-mode  (app tree, gated)--><g id="cluster_Spectracs  --doc-mode  (app tree, gated)"><path d="M1030.5,372.5938 L1353.2813,372.5938 A3.75,3.75 0 0 1 1355.7813,375.0938 L1362.7813,394.8906 L1705.5,394.8906 A2.5,2.5 0 0 1 1708,397.3906 L1708,651.0938 A2.5,2.5 0 0 1 1705.5,653.5938 L1030.5,653.5938 A2.5,2.5 0 0 1 1028,651.0938 L1028,375.0938 A2.5,2.5 0 0 1 1030.5,372.5938 " fill="#E8F5E9" style="stroke:#5A5A5A;stroke-width:1.5;"/><line style="stroke:#5A5A5A;stroke-width:1.5;" x1="1028" x2="1362.7813" y1="394.8906" y2="394.8906"/><text fill="#222222" font-family="Sans" font-size="14" font-weight="bold" lengthAdjust="spacing" textLength="321.7813" x="1032" y="387.5889">Spectracs  --doc-mode  (app tree, gated)</text></g><!--entity PR--><g id="elem_PR"><rect fill="#E3F2FD" height="52.5938" rx="5" ry="5" style="stroke:#5A5A5A;stroke-width:0.5;" width="217.1006" x="22.5" y="415.5938"/><text fill="#222222" font-family="Sans" font-size="14" lengthAdjust="spacing" textLength="136.1309" x="32.5" y="438.5889">Prompter (QDialog)</text><text fill="#222222" font-family="Sans" font-size="14" lengthAdjust="spacing" textLength="197.1006" x="32.5" y="454.8857">left screen &#183; CONTINUE gate</text></g><!--entity SC--><g id="elem_SC"><rect fill="#E3F2FD" height="52.5938" rx="5" ry="5" style="stroke:#5A5A5A;stroke-width:0.5;" width="173.877" x="390" y="94.5938"/><text fill="#222222" font-family="Sans" font-size="14" lengthAdjust="spacing" textLength="136.5137" x="400" y="117.5889">Scenario (QThread)</text><text fill="#222222" font-family="Sans" font-size="14" lengthAdjust="spacing" textLength="153.877" x="400" y="133.8857">the per-scenario run()</text></g><!--entity DIR--><g id="elem_DIR"><rect fill="#E3F2FD" height="85.1875" rx="5" ry="5" style="stroke:#5A5A5A;stroke-width:0.5;" width="242.1885" x="356" y="224.5938"/><text fill="#222222" font-family="Sans" font-size="14" lengthAdjust="spacing" textLength="83.1455" x="366" y="247.5889">Director API</text><text fill="#222222" font-family="Sans" font-size="14" lengthAdjust="spacing" textLength="169.9482" x="366" y="263.8857">nav / click / wait_ready /</text><text fill="#222222" font-family="Sans" font-size="14" lengthAdjust="spacing" textLength="189.7998" x="366" y="280.1826">set_hint / wait_for_human /</text><text fill="#222222" font-family="Sans" font-size="14" lengthAdjust="spacing" textLength="222.1885" x="366" y="296.4795">screenshot / launch_app / finish</text></g><!--entity PAG--><g id="elem_PAG"><rect fill="#E3F2FD" height="52.5938" rx="5" ry="5" style="stroke:#5A5A5A;stroke-width:0.5;" width="133.8457" x="275" y="415.5938"/><text fill="#222222" font-family="Sans" font-size="14" lengthAdjust="spacing" textLength="74.457" x="285" y="438.5889">PyAutoGUI</text><text fill="#222222" font-family="Sans" font-size="14" lengthAdjust="spacing" textLength="113.8457" x="285" y="454.8857">real cursor glide</text></g><!--entity FF--><g id="elem_FF"><rect fill="#E3F2FD" height="52.5938" rx="5" ry="5" style="stroke:#5A5A5A;stroke-width:0.5;" width="153.6426" x="444" y="415.5938"/><text fill="#222222" font-family="Sans" font-size="14" lengthAdjust="spacing" textLength="123.4639" x="454" y="438.5889">ffmpeg (x11grab)</text><text fill="#222222" font-family="Sans" font-size="14" lengthAdjust="spacing" textLength="133.6426" x="454" y="454.8857">record app window</text></g><!--entity UDP--><g id="elem_UDP"><rect fill="#E8F5E9" height="68.8906" rx="5" ry="5" style="stroke:#5A5A5A;stroke-width:0.5;" width="228.8037" x="1084.5" y="407.5938"/><text fill="#222222" font-family="Sans" font-size="14" lengthAdjust="spacing" textLength="194.1953" x="1094.5" y="430.5889">DocModeUdpService  :5555</text><text fill="#222222" font-family="Sans" font-size="14" lengthAdjust="spacing" textLength="205.3037" x="1094.5" y="446.8857">set_hint &#183; locate(+tab) &#183; nav &#183;</text><text fill="#222222" font-family="Sans" font-size="14" lengthAdjust="spacing" textLength="208.8037" x="1094.5" y="463.1826">wait &#183; activate &#183; dismiss &#183; ping</text></g><!--entity HINT--><g id="elem_HINT"><rect fill="#E8F5E9" height="52.5938" rx="5" ry="5" style="stroke:#5A5A5A;stroke-width:0.5;" width="198.6572" x="1044.5" y="576.5938"/><text fill="#222222" font-family="Sans" font-size="14" lengthAdjust="spacing" textLength="178.6572" x="1054.5" y="599.5889">DocHintPanelViewModule</text><text fill="#222222" font-family="Sans" font-size="14" lengthAdjust="spacing" textLength="135.4404" x="1054.5" y="615.8857">right-side narration</text></g><!--entity VIEWS--><g id="elem_VIEWS"><rect fill="#E8F5E9" height="68.8906" rx="5" ry="5" style="stroke:#5A5A5A;stroke-width:0.5;" width="225.7344" x="1279" y="568.5938"/><text fill="#222222" font-family="Sans" font-size="14" lengthAdjust="spacing" textLength="71.333" x="1289" y="591.5889">App views</text><text fill="#222222" font-family="Sans" font-size="14" lengthAdjust="spacing" textLength="205.7344" x="1289" y="607.8857">Wizard / Measurement bench</text><text fill="#222222" font-family="Sans" font-size="14" lengthAdjust="spacing" textLength="167.0635" x="1289" y="624.1826">(objectName'd widgets)</text></g><!--entity NAV--><g id="elem_NAV"><rect fill="#E8F5E9" height="36.2969" rx="5" ry="5" style="stroke:#5A5A5A;stroke-width:0.5;" width="150.6348" x="1540.5" y="585.0938"/><text fill="#222222" font-family="Sans" font-size="14" lengthAdjust="spacing" textLength="130.6348" x="1550.5" y="608.0889">NavigationHandler</text></g><!--entity SCREEN--><g id="elem_SCREEN"><rect fill="#FFF3E0" height="52.5938" rx="5" ry="5" style="stroke:#5A5A5A;stroke-width:0.5;" width="217.0801" x="427.5" y="716.5938"/><text fill="#222222" font-family="Sans" font-size="14" lengthAdjust="spacing" textLength="107.5361" x="437.5" y="739.5889">Screen / X11 :0</text><text fill="#222222" font-family="Sans" font-size="14" lengthAdjust="spacing" textLength="197.0801" x="437.5" y="755.8857">(app window on its monitor)</text></g><!--entity OUT--><g id="elem_OUT"><rect fill="#FFF3E0" height="68.8906" rx="5" ry="5" style="stroke:#5A5A5A;stroke-width:0.5;" width="227.0742" x="715.5" y="568.5938"/><text fill="#222222" font-family="Sans" font-size="14" lengthAdjust="spacing" textLength="207.0742" x="725.5" y="591.5889">automation/recordings/*.mp4</text><text fill="#222222" font-family="Sans" font-size="14" lengthAdjust="spacing" textLength="201.7148" x="725.5" y="607.8857">(gitignored &#8212; not versioned)</text><text fill="#222222" font-family="Sans" font-size="14" lengthAdjust="spacing" textLength="143.3564" x="725.5" y="624.1826">+ screenshots/*.png</text></g><g id="elem_GMN27"><path d="M633.5,414.5938 L633.5,469.9922 A0,0 0 0 0 633.5,469.9922 L1012.9014,469.9922 A0,0 0 0 0 1012.9014,469.9922 L1012.9014,424.5938 L1002.9014,414.5938 L774,414.5938 L560.32,309.7538 L766,414.5938 L633.5,414.5938 A0,0 0 0 0 633.5,414.5938 " fill="#FEFFDD" style="stroke:#181818;stroke-width:0.5;"/><path d="M1002.9014,414.5938 L1002.9014,424.5938 L1012.9014,424.5938 L1002.9014,414.5938 " fill="#FEFFDD" style="stroke:#181818;stroke-width:0.5;"/><text fill="#000000" font-family="Sans" font-size="13" lengthAdjust="spacing" textLength="340.6787" x="639.5" y="431.6606">Robust click = glide the VISIBLE cursor (PyAutoGUI),</text><text fill="#000000" font-family="Sans" font-size="13" lengthAdjust="spacing" textLength="358.4014" x="639.5" y="446.7935">then trigger the widget PROGRAMMATICALLY over UDP</text><text fill="#000000" font-family="Sans" font-size="13" lengthAdjust="spacing" textLength="256.731" x="639.5" y="461.9263">(activate) &#8212; never a missed pixel-click.</text></g><!--link SC to DIR--><g id="link_SC_DIR"><path d="M477,147.8338 C477,169.1137 477,193.7338 477,218.4838 " fill="none" id="SC-to-DIR" style="stroke:#5A7D8C;stroke-width:1.0;"/><polygon fill="#5A7D8C" points="477,224.4838,481,215.4838,477,219.4838,473,215.4838,477,224.4838" style="stroke:#5A7D8C;stroke-width:1.0;"/><text fill="#5A7D8C" font-family="Sans" font-size="13" lengthAdjust="spacing" textLength="29.1104" x="478" y="190.6606">calls</text></g><!--link DIR to PR--><g id="link_DIR_PR"><path d="M355.95,306.6238 C330.36,316.2538 303.89,327.3638 280,339.5938 C237.51,361.3438 197.5474,389.5637 168.3174,411.7737 " fill="none" id="DIR-to-PR" style="stroke:#5A7D8C;stroke-width:1.0;"/><polygon fill="#5A7D8C" points="163.54,415.4038,173.126,413.1436,167.5211,412.3787,168.286,406.7738,163.54,415.4038" style="stroke:#5A7D8C;stroke-width:1.0;"/><text fill="#5A7D8C" font-family="Sans" font-size="13" lengthAdjust="spacing" textLength="89.521" x="281" y="352.6606">prompt / gate</text></g><!--link DIR to UDP--><g id="link_DIR_UDP"><path d="M598.26,280.3338 C711.7,293.8638 884.94,319.8938 1030,364.5938 C1065.86,375.6438 1098.6838,389.8505 1129.6838,404.9205 " fill="none" id="DIR-to-UDP" style="stroke:#5A7D8C;stroke-width:1.0;"/><polygon fill="#5A7D8C" points="1135.08,407.5438,1128.7346,400.0115,1130.5832,405.3577,1125.2369,407.2063,1135.08,407.5438" style="stroke:#5A7D8C;stroke-width:1.0;"/><text fill="#5A7D8C" font-family="Sans" font-size="13" lengthAdjust="spacing" textLength="139.3311" x="1002" y="352.6606">UDP JSON commands</text></g><!--link UDP to HINT--><g id="link_UDP_HINT"><path d="M1187.35,476.7038 C1184.01,486.3538 1180.36,496.8938 1177,506.5938 C1168.8,530.3038 1161.4183,551.6523 1154.7783,570.8823 " fill="none" id="UDP-to-HINT" style="stroke:#5A7D8C;stroke-width:1.0;"/><polygon fill="#5A7D8C" points="1152.82,576.5538,1159.5384,569.3522,1154.4519,571.8276,1151.9765,566.7411,1152.82,576.5538" style="stroke:#5A7D8C;stroke-width:1.0;"/><text fill="#5A7D8C" font-family="Sans" font-size="13" lengthAdjust="spacing" textLength="51.5557" x="1178" y="527.1606">set_hint</text></g><!--link UDP to NAV--><g id="link_UDP_NAV"><path d="M1313.6,455.2538 C1370.18,464.3138 1438.29,479.9138 1495,506.5938 C1537.14,526.4137 1573.6347,559.1838 1595.4247,580.8438 " fill="none" id="UDP-to-NAV" style="stroke:#5A7D8C;stroke-width:1.0;"/><polygon fill="#5A7D8C" points="1599.68,585.0738,1596.117,575.892,1596.1339,581.5488,1590.4771,581.5657,1599.68,585.0738" style="stroke:#5A7D8C;stroke-width:1.0;"/><text fill="#5A7D8C" font-family="Sans" font-size="13" lengthAdjust="spacing" textLength="148.2241" x="1546" y="527.1606">nav (NavigationSignal)</text></g><!--link UDP to VIEWS--><g id="link_UDP_VIEWS"><path d="M1225.06,476.8138 C1241.08,496.2438 1262.74,520.3438 1285,538.5938 C1298.2,549.4137 1308.3024,556.5045 1323.0724,565.4145 " fill="none" id="UDP-to-VIEWS" style="stroke:#5A7D8C;stroke-width:1.0;"/><polygon fill="#5A7D8C" points="1328.21,568.5138,1322.5698,560.4398,1323.9287,565.931,1318.4375,567.2899,1328.21,568.5138" style="stroke:#5A7D8C;stroke-width:1.0;"/><text fill="#5A7D8C" font-family="Sans" font-size="13" lengthAdjust="spacing" textLength="148.8081" x="1313.7043" y="519.6606">locate (mapToGlobal) /</text><text fill="#5A7D8C" font-family="Sans" font-size="13" lengthAdjust="spacing" textLength="204.2168" x="1286" y="534.7935">activate (findChild&#8594;click) / wait</text></g><!--link DIR to PAG--><g id="link_DIR_PAG"><path d="M418.83,309.7838 C408.44,318.8538 398.3,328.9538 390,339.5938 C371.9,362.8038 360.5251,388.314 352.5451,409.964 " fill="none" id="DIR-to-PAG" style="stroke:#5A7D8C;stroke-width:1.0;"/><polygon fill="#5A7D8C" points="350.47,415.5938,357.3358,408.5325,352.1992,410.9023,349.8294,405.7657,350.47,415.5938" style="stroke:#5A7D8C;stroke-width:1.0;"/><text fill="#5A7D8C" font-family="Sans" font-size="13" lengthAdjust="spacing" textLength="96.9985" x="391" y="352.6606">glide to (cx,cy)</text></g><!--link PAG to SCREEN--><g id="link_PAG_SCREEN"><path d="M339.71,468.8038 C337.16,512.7538 338.07,603.2338 381,661.5938 C399.15,686.2638 421.6436,701.4982 448.8436,713.9382 " fill="none" id="PAG-to-SCREEN" style="stroke:#5A7D8C;stroke-width:1.0;"/><polygon fill="#5A7D8C" points="454.3,716.4338,447.7791,709.0529,449.753,714.3542,444.4517,716.3281,454.3,716.4338" style="stroke:#5A7D8C;stroke-width:1.0;"/><text fill="#5A7D8C" font-family="Sans" font-size="13" lengthAdjust="spacing" textLength="136.1382" x="382" y="607.6606">visible cursor motion</text></g><!--link DIR to FF--><g id="link_DIR_FF"><path d="M487.65,309.9738 C496.02,342.8738 505.9207,381.819 512.9907,409.609 " fill="none" id="DIR-to-FF" style="stroke:#5A7D8C;stroke-width:1.0;"/><polygon fill="#5A7D8C" points="514.47,415.4238,516.1275,405.7154,513.2372,410.5781,508.3745,407.6878,514.47,415.4238" style="stroke:#5A7D8C;stroke-width:1.0;"/><text fill="#5A7D8C" font-family="Sans" font-size="13" lengthAdjust="spacing" textLength="70.9985" x="500" y="352.6606">start / stop</text></g><!--link FF to SCREEN--><g id="link_FF_SCREEN"><path d="M522.29,468.8438 C525.13,525.3638 531.5691,653.7413 534.4091,710.3013 " fill="none" id="FF-to-SCREEN" style="stroke:#5A7D8C;stroke-width:1.0;"/><polygon fill="#5A7D8C" points="534.71,716.2938,538.2536,707.1045,534.4593,711.3,530.2637,707.5057,534.71,716.2938" style="stroke:#5A7D8C;stroke-width:1.0;"/><text fill="#5A7D8C" font-family="Sans" font-size="13" lengthAdjust="spacing" textLength="142.1494" x="532" y="607.6606">grab app-window rect</text></g><!--link FF to OUT--><g id="link_FF_OUT"><path d="M570.28,468.8338 C584.98,476.4938 601.14,484.9038 616,492.5938 C665.3,518.1038 715.7611,544.0559 757.8811,565.6559 " fill="none" id="FF-to-OUT" style="stroke:#5A7D8C;stroke-width:1.0;"/><polygon fill="#5A7D8C" points="763.22,568.3938,757.0369,560.7276,758.7709,566.1122,753.3864,567.8462,763.22,568.3938" style="stroke:#5A7D8C;stroke-width:1.0;"/><text fill="#5A7D8C" font-family="Sans" font-size="13" lengthAdjust="spacing" textLength="80.9072" x="704" y="527.1606">encode mp4</text></g><!--link VIEWS to SCREEN--><g id="link_VIEWS_SCREEN"><path d="M1326.1,637.6637 C1305.69,646.7838 1282.83,655.7338 1261,661.5938 C1047.56,718.8538 794.2367,735.2544 650.7567,740.0244 " fill="none" id="VIEWS-to-SCREEN" style="stroke:#5A7D8C;stroke-width:1.0;"/><polygon fill="#5A7D8C" points="644.76,740.2238,653.8879,743.9225,649.7572,740.0576,653.6221,735.9269,644.76,740.2238" style="stroke:#5A7D8C;stroke-width:1.0;"/><text fill="#5A7D8C" font-family="Sans" font-size="13" lengthAdjust="spacing" textLength="112.2646" x="1223" y="682.6606">app renders here</text></g><rect fill="none" height="79.1875" id="_legend" rx="7.5" ry="7.5" style="stroke:#000000;stroke-width:1.0;" width="354.6406" x="1334.3594" y="786.1875"/><text fill="#000000" font-family="Sans" font-size="14" font-weight="bold" lengthAdjust="spacing" textLength="49.2051" x="1344.2334" y="806.1826">colour</text><text fill="#000000" font-family="Sans" font-size="14" font-weight="bold" lengthAdjust="spacing" textLength="33.0654" x="1403.1865" y="806.1826">part</text><rect fill="#E3F2FD" height="16.2969" style="stroke:none;stroke-width:1.0;" width="58.9531" x="1339.3594" y="809.4844"/><text fill="#000000" font-family="Sans" font-size="14" lengthAdjust="spacing" textLength="17.8008" x="1339.3594" y="822.4795">&#160;&#160;&#160;&#160;</text><text fill="#000000" font-family="Sans" font-size="14" lengthAdjust="spacing" textLength="276.7871" x="1402.7627" y="822.4795">Director (external tooling, automation/)</text><rect fill="#E8F5E9" height="16.2969" style="stroke:none;stroke-width:1.0;" width="58.9531" x="1339.3594" y="825.7813"/><text fill="#000000" font-family="Sans" font-size="14" lengthAdjust="spacing" textLength="17.8008" x="1339.3594" y="838.7764">&#160;&#160;&#160;&#160;</text><text fill="#000000" font-family="Sans" font-size="14" lengthAdjust="spacing" textLength="244.4395" x="1402.7627" y="838.7764">Spectracs app, --doc-mode (gated)</text><rect fill="#FFF3E0" height="16.2969" style="stroke:none;stroke-width:1.0;" width="58.9531" x="1339.3594" y="842.0781"/><text fill="#000000" font-family="Sans" font-size="14" lengthAdjust="spacing" textLength="17.8008" x="1339.3594" y="855.0732">&#160;&#160;&#160;&#160;</text><text fill="#000000" font-family="Sans" font-size="14" lengthAdjust="spacing" textLength="141.8525" x="1402.7627" y="855.0732">OS / output artifacts</text><line style="stroke:#000000;stroke-width:1.0;" x1="1339.3594" x2="1684" y1="793.1875" y2="793.1875"/><line style="stroke:#000000;stroke-width:1.0;" x1="1339.3594" x2="1684" y1="809.4844" y2="809.4844"/><line style="stroke:#000000;stroke-width:1.0;" x1="1339.3594" x2="1684" y1="825.7813" y2="825.7813"/><line style="stroke:#000000;stroke-width:1.0;" x1="1339.3594" x2="1684" y1="842.0781" y2="842.0781"/><line style="stroke:#000000;stroke-width:1.0;" x1="1339.3594" x2="1684" y1="858.375" y2="858.375"/><line style="stroke:#000000;stroke-width:1.0;" x1="1339.3594" x2="1339.3594" y1="793.1875" y2="858.375"/><line style="stroke:#000000;stroke-width:1.0;" x1="1398.3125" x2="1398.3125" y1="793.1875" y2="858.375"/><line style="stroke:#000000;stroke-width:1.0;" x1="1684" x2="1684" y1="793.1875" y2="858.375"/><!--SRC=[TLRRRjj647tdLmoSXqYDQDbEqwH24q3HnL5XoQebEorWG5YHAseJSfVONSfscm1zwWSK_PUyvrFo9Jr3KHSdZWnOtDsPsPavvmprc2QvZBmLaQClV_z7NHCLcTHUU6LqqqLMIXq9vqaKtcJbBjKEkih2oTY3EWaRBPN7gh3oC7XC7PFbGhEPD-GsiSTtpTX4hZaPzpepFCrsuGwpc6g3uVYiD-oDfhqk3OyRT79qybDuz3myFgbpq0kPI2sjyB95z4wi18NlXAKy5TeNMNh8Yz2xLKBtOy_kPPV3D0YyygdyjkhmUmKkXTNIkMljRmpbraHOIDSWeoMb9X9fUDaTavCYeoSaQAMSckE2p1HEKasuS5werEzN50JklTAvi72PY-XzOasXuuv9ZQL7_VApP-6M8ZOtIYUq4AcJUoUnN8WYzNsZ_KXag4bejtVSjjRSL56VjPztNtI-FcJFxnbm_K8dgEIlW6ZFygJyOE-riR6qMt_-msvL2tfcwVWe-BWNCaUj8ba7VDZvssi-1a7AuCTaLRBqiFdmaYAO59QV4DZJ1zwbNnxrdlPF-jrNHBpS84WrUUkbrI858KsAFZRskDoixxnVz9_rVgwyT_GGUTwWC0Ilmip4G3G12-ET6y1wsZkgtCudr2HJ-Bo0OAnN2n5v1rFalwuY23PDs59imoa2MNPvDO3kAZGwlQiVK5LPsRWTBWTZ2wsXDghzrbKYDKdzMgTouMajM_hyYJhde-bWTDaZplg0XAFnnIRS_M2JI6fXbK6mwT9A4IEONqhAfGtTvimMkbOlmqmw3uVPLjKU3wwr5Yiq94fLz1xVDqBv6OU-e-QrTjBFbahxpS72sDcoo8Gk3yiAtDBmSIeA7IrdG0ABXTBABSiSkeFlr3A-QwEJfvV80DUb51NM8QKaLN7LXFRfmvwBHPRBX6gtnyU95VCw1uX0LQO1GOHGOXcWtz_wVzp3T4URVSe0M7XxLDIWDNiOqf9kNqEAGJI4osMSJwHTgGZEhMVuxBKBgFBOyRBsn2D3NdERFt-wrjn7NeDrQWKBVewLonJOXSSSv2-pvu5L9V3DzMzmnrXecLufUODSYbIY2QozqA5zkClQag9bf3U3qVJXK6sKl4883Cwtwa-15ZPfA8N38ERt2ytnNbbUwvgPluCJpw_7CJeS9zAxDSMk1hstauU3ZyHA9MKMRmHBovOEe_RLrXoet2DtAOWc_NvyJAqZNBl34uES55IQ6Qr0t0szBtgz4LNgtW-rfz4rDT1Kr_pXCCj_HDX4UPLeOsLSlbSq-BkIri5Qig2Uq8xOx9HNW9nVJhTt1P1M6BugsTqYl5zI5_0pxurvAozbZsAOIziZnhHL_lzrSZx2YCmWfTW5lCFd9L8jsj1ekyzDQvKCgkswEa4H8grlZTPGj2hYKIqJ-TISfcOE8vRhbd0ro3FkB5KQV_ddtrBtzKhVkngWlTPQY_mJeHRTDgAxUi3RV5nrlhLzaLRYpGmdjeq20Q8Op-E_YM-J1zYvvy_wPTc65SoCuSQ8-zqYC93b2UI2TO7t_9aX5YCRyD5IMXa4G5FIt7WGWCo20G8hByoymC-ZzOnxkQaBW_DgC1cyFkjjygzjXrAz0JTOu1SIT9LWVhFvclf0-FpqeZqSjgU3Jllix0you0_36l0OgTfSNvDByf4WbZVubgjRcOPb7eVymc7ooVy1]--></g></svg>