<svg xmlns="http://www.w3.org/2000/svg" xmlns:xlink="http://www.w3.org/1999/xlink" contentStyleType="text/css" height="818px" preserveAspectRatio="none" style="width:463px;height:818px;background:#FFFFFF;" version="1.1" viewBox="0 0 463 818" width="463px" zoomAndPan="magnify"><defs/><g><rect fill="#F1E5E5" height="738" style="stroke:none;stroke-width:1.0;" width="32" x="64" y="39"/><rect fill="#F1E5E5" height="738" style="stroke:none;stroke-width:1.0;" width="32" x="176" y="39"/><text fill="#000000" font-family="sans-serif" font-size="10" lengthAdjust="spacing" textLength="12.4463" x="1.7769" y="23.2822">Tu</text><text fill="#000000" font-family="sans-serif" font-size="10" lengthAdjust="spacing" textLength="16.04" x="16" y="23.2822">We</text><text fill="#000000" font-family="sans-serif" font-size="10" lengthAdjust="spacing" textLength="12.4463" x="33.7769" y="23.2822">Th</text><text fill="#000000" font-family="sans-serif" font-size="10" lengthAdjust="spacing" textLength="9.8633" x="51.0684" y="23.2822">Fr</text><text fill="#989898" font-family="sans-serif" font-size="10" lengthAdjust="spacing" textLength="12.4756" x="65.7622" y="23.2822">Sa</text><text fill="#989898" font-family="sans-serif" font-size="10" lengthAdjust="spacing" textLength="12.6855" x="81.6572" y="23.2822">Su</text><text fill="#000000" font-family="sans-serif" font-size="10" lengthAdjust="spacing" textLength="14.7461" x="96.627" y="23.2822">Mo</text><text fill="#000000" font-family="sans-serif" font-size="10" lengthAdjust="spacing" textLength="12.4463" x="113.7769" y="23.2822">Tu</text><text fill="#000000" font-family="sans-serif" font-size="10" lengthAdjust="spacing" textLength="16.04" x="128" y="23.2822">We</text><text fill="#000000" font-family="sans-serif" font-size="10" lengthAdjust="spacing" textLength="12.4463" x="145.7769" y="23.2822">Th</text><text fill="#000000" font-family="sans-serif" font-size="10" lengthAdjust="spacing" textLength="9.8633" x="163.0684" y="23.2822">Fr</text><text fill="#989898" font-family="sans-serif" font-size="10" lengthAdjust="spacing" textLength="12.4756" x="177.7622" y="23.2822">Sa</text><text fill="#989898" font-family="sans-serif" font-size="10" lengthAdjust="spacing" textLength="12.6855" x="193.6572" y="23.2822">Su</text><text fill="#000000" font-family="sans-serif" font-size="10" lengthAdjust="spacing" textLength="14.7461" x="208.627" y="23.2822">Mo</text><text fill="#000000" font-family="sans-serif" font-size="10" lengthAdjust="spacing" textLength="12.4463" x="225.7769" y="23.2822">Tu</text><text fill="#000000" font-family="sans-serif" font-size="10" lengthAdjust="spacing" textLength="16.04" x="240" y="23.2822">We</text><text fill="#000000" font-family="sans-serif" font-size="10" lengthAdjust="spacing" textLength="12.7246" x="1.6377" y="35.2822">11</text><text fill="#000000" font-family="sans-serif" font-size="10" lengthAdjust="spacing" textLength="12.7246" x="17.6377" y="35.2822">12</text><text fill="#000000" font-family="sans-serif" font-size="10" lengthAdjust="spacing" textLength="12.7246" x="33.6377" y="35.2822">13</text><text fill="#000000" font-family="sans-serif" font-size="10" lengthAdjust="spacing" textLength="12.7246" x="49.6377" y="35.2822">14</text><text fill="#989898" font-family="sans-serif" font-size="10" lengthAdjust="spacing" textLength="12.7246" x="65.6377" y="35.2822">15</text><text fill="#989898" font-family="sans-serif" font-size="10" lengthAdjust="spacing" textLength="12.7246" x="81.6377" y="35.2822">16</text><text fill="#000000" font-family="sans-serif" font-size="10" lengthAdjust="spacing" textLength="12.7246" x="97.6377" y="35.2822">17</text><text fill="#000000" font-family="sans-serif" font-size="10" lengthAdjust="spacing" textLength="12.7246" x="113.6377" y="35.2822">18</text><text fill="#000000" font-family="sans-serif" font-size="10" lengthAdjust="spacing" textLength="12.7246" x="129.6377" y="35.2822">19</text><text fill="#000000" font-family="sans-serif" font-size="10" lengthAdjust="spacing" textLength="12.7246" x="145.6377" y="35.2822">20</text><text fill="#000000" font-family="sans-serif" font-size="10" lengthAdjust="spacing" textLength="12.7246" x="161.6377" y="35.2822">21</text><text fill="#989898" font-family="sans-serif" font-size="10" lengthAdjust="spacing" textLength="12.7246" x="177.6377" y="35.2822">22</text><text fill="#989898" font-family="sans-serif" font-size="10" lengthAdjust="spacing" textLength="12.7246" x="193.6377" y="35.2822">23</text><text fill="#000000" font-family="sans-serif" font-size="10" lengthAdjust="spacing" textLength="12.7246" x="209.6377" y="35.2822">24</text><text fill="#000000" font-family="sans-serif" font-size="10" lengthAdjust="spacing" textLength="12.7246" x="225.6377" y="35.2822">25</text><text fill="#000000" font-family="sans-serif" font-size="10" lengthAdjust="spacing" textLength="12.7246" x="241.6377" y="35.2822">26</text><text fill="#000000" font-family="sans-serif" font-size="12" font-weight="bold" lengthAdjust="spacing" textLength="85.418" x="85.291" y="11.1387">August 2026</text><line style="stroke:#C0C0C0;stroke-width:1.0;" x1="0" x2="0" y1="39" y2="777"/><line style="stroke:#C0C0C0;stroke-width:1.0;" x1="16" x2="16" y1="39" y2="777"/><line style="stroke:#C0C0C0;stroke-width:1.0;" x1="32" x2="32" y1="39" y2="777"/><line style="stroke:#C0C0C0;stroke-width:1.0;" x1="48" x2="48" y1="39" y2="777"/><line style="stroke:#C0C0C0;stroke-width:1.0;" x1="64" x2="64" y1="39" y2="777"/><line style="stroke:#C0C0C0;stroke-width:1.0;" x1="80" x2="80" y1="39" y2="777"/><line style="stroke:#C0C0C0;stroke-width:1.0;" x1="96" x2="96" y1="39" y2="777"/><line style="stroke:#C0C0C0;stroke-width:1.0;" x1="112" x2="112" y1="39" y2="777"/><line style="stroke:#C0C0C0;stroke-width:1.0;" x1="128" x2="128" y1="39" y2="777"/><line style="stroke:#C0C0C0;stroke-width:1.0;" x1="144" x2="144" y1="39" y2="777"/><line style="stroke:#C0C0C0;stroke-width:1.0;" x1="160" x2="160" y1="39" y2="777"/><line style="stroke:#C0C0C0;stroke-width:1.0;" x1="176" x2="176" y1="39" y2="777"/><line style="stroke:#C0C0C0;stroke-width:1.0;" x1="192" x2="192" y1="39" y2="777"/><line style="stroke:#C0C0C0;stroke-width:1.0;" x1="208" x2="208" y1="39" y2="777"/><line style="stroke:#C0C0C0;stroke-width:1.0;" x1="224" x2="224" y1="39" y2="777"/><line style="stroke:#C0C0C0;stroke-width:1.0;" x1="240" x2="240" y1="39" y2="777"/><line style="stroke:#C0C0C0;stroke-width:1.0;" x1="256" x2="256" y1="39" y2="777"/><line style="stroke:#C0C0C0;stroke-width:1.0;" x1="0" x2="256" y1="39" y2="39"/><line style="stroke:#C0C0C0;stroke-width:1.0;" x1="0" x2="256" y1="777" y2="777"/><line style="stroke:#181818;stroke-width:1.5;" x1="7" x2="7" y1="53.8047" y2="137.0664"/><line style="stroke:#181818;stroke-width:1.5;" x1="7" x2="15" y1="137.0664" y2="137.0664"/><polygon fill="#181818" points="11,133.0664,11,137.0664,11,141.0664,15,137.0664" style="stroke:#181818;stroke-width:1.5;"/><line style="stroke:#181818;stroke-width:1.5;" x1="23" x2="23" y1="143.4688" y2="205.7773"/><line style="stroke:#181818;stroke-width:1.5;" x1="23" x2="31" y1="205.7773" y2="205.7773"/><polygon fill="#181818" points="27,201.7773,27,205.7773,27,209.7773,31,205.7773" style="stroke:#181818;stroke-width:1.5;"/><line style="stroke:#181818;stroke-width:1.5;" x1="39" x2="39" y1="212.1797" y2="264.0117"/><line style="stroke:#181818;stroke-width:1.5;" x1="39" x2="47" y1="264.0117" y2="264.0117"/><polygon fill="#181818" points="43,260.0117,43,264.0117,43,268.0117,47,264.0117" style="stroke:#181818;stroke-width:1.5;"/><line style="stroke:#181818;stroke-width:1.5;" x1="103" x2="103" y1="270.4141" y2="353.6758"/><line style="stroke:#181818;stroke-width:1.5;" x1="103" x2="111" y1="353.6758" y2="353.6758"/><polygon fill="#181818" points="107,349.6758,107,353.6758,107,357.6758,111,353.6758" style="stroke:#181818;stroke-width:1.5;"/><line style="stroke:#181818;stroke-width:1.5;" x1="135" x2="135" y1="360.0781" y2="449.668"/><line style="stroke:#181818;stroke-width:1.5;" x1="135" x2="143" y1="449.668" y2="449.668"/><polygon fill="#181818" points="139,445.668,139,449.668,139,453.668,143,449.668" style="stroke:#181818;stroke-width:1.5;"/><line style="stroke:#181818;stroke-width:1.5;" x1="151" x2="151" y1="456.0703" y2="524.707"/><line style="stroke:#181818;stroke-width:1.5;" x1="151" x2="159" y1="524.707" y2="524.707"/><polygon fill="#181818" points="155,520.707,155,524.707,155,528.707,159,524.707" style="stroke:#181818;stroke-width:1.5;"/><line style="stroke:#181818;stroke-width:1.5;" x1="215" x2="215" y1="531.1094" y2="593.418"/><line style="stroke:#181818;stroke-width:1.5;" x1="215" x2="223" y1="593.418" y2="593.418"/><polygon fill="#181818" points="219,589.418,219,593.418,219,597.418,223,593.418" style="stroke:#181818;stroke-width:1.5;"/><line style="stroke:#181818;stroke-width:1.5;" x1="231" x2="231" y1="599.8203" y2="672.6055"/><line style="stroke:#181818;stroke-width:1.5;" x1="231" x2="239" y1="672.6055" y2="672.6055"/><polygon fill="#181818" points="235,668.6055,235,672.6055,235,676.6055,239,672.6055" style="stroke:#181818;stroke-width:1.5;"/><line style="stroke:#181818;stroke-width:1.5;" x1="7" x2="7" y1="53.8047" y2="706.2148"/><line style="stroke:#181818;stroke-width:1.5;" x1="7" x2="15" y1="706.2148" y2="706.2148"/><polygon fill="#181818" points="11,702.2148,11,706.2148,11,710.2148,15,706.2148" style="stroke:#181818;stroke-width:1.5;"/><path d="M0,55.8047 L0,128.6641 L238.4282,128.6641 L238.4282,65.8047 L228.4282,55.8047 L0,55.8047 " fill="#FEFFDD" style="stroke:#181818;stroke-width:0.5;"/><path d="M228.4282,55.8047 L228.4282,65.8047 L238.4282,65.8047 L228.4282,55.8047 " fill="#FEFFDD" style="stroke:#181818;stroke-width:0.5;"/><text fill="#000000" font-family="sans-serif" font-size="9" lengthAdjust="spacing" textLength="200.1313" x="6" y="69.1587">&#9888; TAIL RISK, and the only one on the critical</text><text fill="#000000" font-family="sans-serif" font-size="9" lengthAdjust="spacing" textLength="199.5249" x="6" y="79.6353">path that could cost days rather than hours:</text><text fill="#000000" font-family="sans-serif" font-size="9" lengthAdjust="spacing" textLength="217.4282" x="6" y="90.1118">publish-&gt;assign-&gt;load has NEVER been run end</text><text fill="#000000" font-family="sans-serif" font-size="9" lengthAdjust="spacing" textLength="205.6948" x="6" y="100.5884">to end. Do the NO-OP BUMP FIRST, inside this</text><text fill="#000000" font-family="sans-serif" font-size="9" lengthAdjust="spacing" textLength="185.8799" x="6" y="111.0649">day, so a failure there is not tangled with</text><text fill="#000000" font-family="sans-serif" font-size="9" lengthAdjust="spacing" textLength="140.6865" x="6" y="121.5415">the metric change that follows.</text><rect fill="#E8756B" height="12.8047" style="stroke:none;stroke-width:1.0;" width="12" x="2" y="41"/><line style="stroke:#E8756B;stroke-width:1.0;" x1="2" x2="14" y1="41" y2="41"/><line style="stroke:#E8756B;stroke-width:1.0;" x1="2" x2="14" y1="53.8047" y2="53.8047"/><line style="stroke:#E8756B;stroke-width:1.0;" x1="2" x2="2" y1="41" y2="53.8047"/><line style="stroke:#E8756B;stroke-width:1.0;" x1="14" x2="14" y1="41" y2="53.8047"/><path d="M16,145.4688 L16,197.375 L231.1372,197.375 L231.1372,155.4688 L221.1372,145.4688 L16,145.4688 " fill="#FEFFDD" style="stroke:#181818;stroke-width:0.5;"/><path d="M221.1372,145.4688 L221.1372,155.4688 L231.1372,155.4688 L221.1372,145.4688 " fill="#FEFFDD" style="stroke:#181818;stroke-width:0.5;"/><text fill="#000000" font-family="sans-serif" font-size="9" lengthAdjust="spacing" textLength="194.1372" x="22" y="158.8228">Gates the aperture: undiluted oil is opaque</text><text fill="#000000" font-family="sans-serif" font-size="9" lengthAdjust="spacing" textLength="177.7148" x="22" y="169.2993">in the blue, so anything above the dark</text><text fill="#000000" font-family="sans-serif" font-size="9" lengthAdjust="spacing" textLength="135.0923" x="22" y="179.7759">offset is the wall-bypass path.</text><text fill="#000000" font-family="sans-serif" font-size="9" lengthAdjust="spacing" textLength="121.1836" x="22" y="190.2524">f = (S_opaque - D) / (R - D)</text><rect fill="#6BA3D6" height="12.8047" style="stroke:none;stroke-width:1.0;" width="12" x="18" y="130.6641"/><line style="stroke:#6BA3D6;stroke-width:1.0;" x1="18" x2="30" y1="130.6641" y2="130.6641"/><line style="stroke:#6BA3D6;stroke-width:1.0;" x1="18" x2="30" y1="143.4688" y2="143.4688"/><line style="stroke:#6BA3D6;stroke-width:1.0;" x1="18" x2="18" y1="130.6641" y2="143.4688"/><line style="stroke:#6BA3D6;stroke-width:1.0;" x1="30" x2="30" y1="130.6641" y2="143.4688"/><path d="M32,214.1797 L32,255.6094 L242.2065,255.6094 L242.2065,224.1797 L232.2065,214.1797 L32,214.1797 " fill="#FEFFDD" style="stroke:#181818;stroke-width:0.5;"/><path d="M232.2065,214.1797 L232.2065,224.1797 L242.2065,224.1797 L232.2065,214.1797 " fill="#FEFFDD" style="stroke:#181818;stroke-width:0.5;"/><text fill="#000000" font-family="sans-serif" font-size="9" lengthAdjust="spacing" textLength="189.2065" x="38" y="227.5337">&#9888; TAIL RISK: assumes the print fits on the</text><text fill="#000000" font-family="sans-serif" font-size="9" lengthAdjust="spacing" textLength="188.6792" x="38" y="238.0103">first or second try. Two apertures, both at</text><text fill="#000000" font-family="sans-serif" font-size="9" lengthAdjust="spacing" textLength="113.9502" x="38" y="248.4868">the jar's INNER diameter.</text><rect fill="#E8A33D" height="12.8047" style="stroke:none;stroke-width:1.0;" width="12" x="34" y="199.375"/><line style="stroke:#E8A33D;stroke-width:1.0;" x1="34" x2="46" y1="199.375" y2="199.375"/><line style="stroke:#E8A33D;stroke-width:1.0;" x1="34" x2="46" y1="212.1797" y2="212.1797"/><line style="stroke:#E8A33D;stroke-width:1.0;" x1="34" x2="34" y1="199.375" y2="212.1797"/><line style="stroke:#E8A33D;stroke-width:1.0;" x1="46" x2="46" y1="199.375" y2="212.1797"/><path d="M48,272.4141 L48,345.2734 L291.8994,345.2734 L291.8994,282.4141 L281.8994,272.4141 L48,272.4141 " fill="#FEFFDD" style="stroke:#181818;stroke-width:0.5;"/><path d="M281.8994,272.4141 L281.8994,282.4141 L291.8994,282.4141 L281.8994,272.4141 " fill="#FEFFDD" style="stroke:#181818;stroke-width:0.5;"/><text fill="#000000" font-family="sans-serif" font-size="9" lengthAdjust="spacing" textLength="198.0889" x="54" y="285.7681">&#9940; G1 FIRST: are the capillaries heparinised?</text><text fill="#000000" font-family="sans-serif" font-size="9" lengthAdjust="spacing" textLength="186.1084" x="54" y="296.2446">Heparin is insoluble in IPA and would add</text><text fill="#000000" font-family="sans-serif" font-size="9" lengthAdjust="spacing" textLength="222.8994" x="54" y="306.7212">SCATTER to the one system whose open problem</text><text fill="#000000" font-family="sans-serif" font-size="9" lengthAdjust="spacing" textLength="190.5161" x="54" y="317.1978">is a scattering pedestal. A failure here is a</text><text fill="#000000" font-family="sans-serif" font-size="9" lengthAdjust="spacing" textLength="159.7852" x="54" y="327.6743">re-sourcing detour, not an evening.</text><text fill="#000000" font-family="sans-serif" font-size="9" lengthAdjust="spacing" textLength="220.6494" x="54" y="338.1509">G2: weigh ten filled capillaries (+-10 % ID band).</text><rect fill="#6BA3D6" height="12.8047" style="stroke:none;stroke-width:1.0;" width="15" x="50" y="257.6094"/><line style="stroke:#6BA3D6;stroke-width:1.0;" x1="50" x2="63" y1="257.6094" y2="257.6094"/><line style="stroke:#6BA3D6;stroke-width:1.0;" x1="50" x2="63" y1="270.4141" y2="270.4141"/><line style="stroke:#6BA3D6;stroke-width:1.0;" x1="50" x2="50" y1="257.6094" y2="270.4141"/><rect fill="#6BA3D6" height="12.8047" style="stroke:none;stroke-width:1.0;" width="14" x="96" y="257.6094"/><line style="stroke:#6BA3D6;stroke-width:1.0;" x1="97" x2="110" y1="257.6094" y2="257.6094"/><line style="stroke:#6BA3D6;stroke-width:1.0;" x1="97" x2="110" y1="270.4141" y2="270.4141"/><line style="stroke:#6BA3D6;stroke-width:1.0;" x1="110" x2="110" y1="257.6094" y2="270.4141"/><line style="stroke:#6BA3D6;stroke-width:1.0;stroke-dasharray:2.0,3.0;" x1="67" x2="93" y1="257.6094" y2="257.6094"/><line style="stroke:#6BA3D6;stroke-width:1.0;stroke-dasharray:2.0,3.0;" x1="67" x2="93" y1="270.4141" y2="270.4141"/><path d="M112,362.0781 L112,424.4609 L345.0801,424.4609 L345.0801,372.0781 L335.0801,362.0781 L112,362.0781 " fill="#FEFFDD" style="stroke:#181818;stroke-width:0.5;"/><path d="M335.0801,362.0781 L335.0801,372.0781 L345.0801,372.0781 L335.0801,362.0781 " fill="#FEFFDD" style="stroke:#181818;stroke-width:0.5;"/><text fill="#000000" font-family="sans-serif" font-size="9" lengthAdjust="spacing" textLength="166.6187" x="118" y="375.4321">On the oils ALREADY HELD (Kiendler,</text><text fill="#000000" font-family="sans-serif" font-size="9" lengthAdjust="spacing" textLength="200.7422" x="118" y="385.9087">Steirerkraft, S-Budget) &#8212; NOT the validation</text><text fill="#000000" font-family="sans-serif" font-size="9" lengthAdjust="spacing" textLength="212.0801" x="118" y="396.3853">panel. This is where the thresholds come from.</text><text fill="#000000" font-family="sans-serif" font-size="9" lengthAdjust="spacing" textLength="170.644" x="118" y="406.8618">Green-vs-green is the capability gate:</text><text fill="#000000" font-family="sans-serif" font-size="9" lengthAdjust="spacing" textLength="152.4199" x="118" y="417.3384">d ~ 1.34 today, ~3.5-5 projected.</text><rect fill="#6BA3D6" height="12.8047" style="stroke:none;stroke-width:1.0;" width="28" x="114" y="347.2734"/><line style="stroke:#6BA3D6;stroke-width:1.0;" x1="114" x2="142" y1="347.2734" y2="347.2734"/><line style="stroke:#6BA3D6;stroke-width:1.0;" x1="114" x2="142" y1="360.0781" y2="360.0781"/><line style="stroke:#6BA3D6;stroke-width:1.0;" x1="114" x2="114" y1="347.2734" y2="360.0781"/><line style="stroke:#6BA3D6;stroke-width:1.0;" x1="142" x2="142" y1="347.2734" y2="360.0781"/><polygon fill="#000000" points="136,426.4609,141,431.4609,136,436.4609,131,431.4609" style="stroke:#000000;stroke-width:1.0;"/><path d="M144,458.0703 L144,499.5 L362.3286,499.5 L362.3286,468.0703 L352.3286,458.0703 L144,458.0703 " fill="#FEFFDD" style="stroke:#181818;stroke-width:0.5;"/><path d="M352.3286,458.0703 L352.3286,468.0703 L362.3286,468.0703 L352.3286,458.0703 " fill="#FEFFDD" style="stroke:#181818;stroke-width:0.5;"/><text fill="#000000" font-family="sans-serif" font-size="9" lengthAdjust="spacing" textLength="197.3286" x="150" y="471.4243">&#9940; Dated, written down, and NEVER re-fitted</text><text fill="#000000" font-family="sans-serif" font-size="9" lengthAdjust="spacing" textLength="184.4165" x="150" y="481.9009">after the validation sees an oil. Re-fitting</text><text fill="#000000" font-family="sans-serif" font-size="9" lengthAdjust="spacing" textLength="194.5854" x="150" y="492.3774">converts a validation into a demonstration.</text><rect fill="#7FB069" height="12.8047" style="stroke:none;stroke-width:1.0;" width="12" x="146" y="443.2656"/><line style="stroke:#7FB069;stroke-width:1.0;" x1="146" x2="158" y1="443.2656" y2="443.2656"/><line style="stroke:#7FB069;stroke-width:1.0;" x1="146" x2="158" y1="456.0703" y2="456.0703"/><line style="stroke:#7FB069;stroke-width:1.0;" x1="146" x2="146" y1="443.2656" y2="456.0703"/><line style="stroke:#7FB069;stroke-width:1.0;" x1="158" x2="158" y1="443.2656" y2="456.0703"/><polygon fill="#000000" points="152,501.5,157,506.5,152,511.5,147,506.5" style="stroke:#000000;stroke-width:1.0;"/><path d="M160,533.1094 L160,585.0156 L414.7583,585.0156 L414.7583,543.1094 L404.7583,533.1094 L160,533.1094 " fill="#FEFFDD" style="stroke:#181818;stroke-width:0.5;"/><path d="M404.7583,533.1094 L404.7583,543.1094 L414.7583,543.1094 L404.7583,533.1094 " fill="#FEFFDD" style="stroke:#181818;stroke-width:0.5;"/><text fill="#000000" font-family="sans-serif" font-size="9" lengthAdjust="spacing" textLength="233.7583" x="166" y="546.4634">2 brown / 2 non-premium green / 4 premium green.</text><text fill="#000000" font-family="sans-serif" font-size="9" lengthAdjust="spacing" textLength="196.5466" x="166" y="556.9399">&#11088; OUT-OF-SAMPLE: eight oils the thresholds</text><text fill="#000000" font-family="sans-serif" font-size="9" lengthAdjust="spacing" textLength="191.6323" x="166" y="567.4165">have never seen. Fresh per fill (the ageing</text><text fill="#000000" font-family="sans-serif" font-size="9" lengthAdjust="spacing" textLength="135.6899" x="166" y="577.8931">rule) &#8212; ~3-4 fills per evening.</text><rect fill="#6BA3D6" height="12.8047" style="stroke:none;stroke-width:1.0;" width="15" x="162" y="518.3047"/><line style="stroke:#6BA3D6;stroke-width:1.0;" x1="162" x2="175" y1="518.3047" y2="518.3047"/><line style="stroke:#6BA3D6;stroke-width:1.0;" x1="162" x2="175" y1="531.1094" y2="531.1094"/><line style="stroke:#6BA3D6;stroke-width:1.0;" x1="162" x2="162" y1="518.3047" y2="531.1094"/><rect fill="#6BA3D6" height="12.8047" style="stroke:none;stroke-width:1.0;" width="14" x="208" y="518.3047"/><line style="stroke:#6BA3D6;stroke-width:1.0;" x1="209" x2="222" y1="518.3047" y2="518.3047"/><line style="stroke:#6BA3D6;stroke-width:1.0;" x1="209" x2="222" y1="531.1094" y2="531.1094"/><line style="stroke:#6BA3D6;stroke-width:1.0;" x1="222" x2="222" y1="518.3047" y2="531.1094"/><line style="stroke:#6BA3D6;stroke-width:1.0;stroke-dasharray:2.0,3.0;" x1="179" x2="205" y1="518.3047" y2="518.3047"/><line style="stroke:#6BA3D6;stroke-width:1.0;stroke-dasharray:2.0,3.0;" x1="179" x2="205" y1="531.1094" y2="531.1094"/><path d="M224,601.8203 L224,664.2031 L461.9624,664.2031 L461.9624,611.8203 L451.9624,601.8203 L224,601.8203 " fill="#FEFFDD" style="stroke:#181818;stroke-width:0.5;"/><path d="M451.9624,601.8203 L451.9624,611.8203 L461.9624,611.8203 L451.9624,601.8203 " fill="#FEFFDD" style="stroke:#181818;stroke-width:0.5;"/><text fill="#000000" font-family="sans-serif" font-size="9" lengthAdjust="spacing" textLength="215.2705" x="230" y="615.1743">&#9888; Scores SEALED before any instrument output</text><text fill="#000000" font-family="sans-serif" font-size="9" lengthAdjust="spacing" textLength="216.9624" x="230" y="625.6509">is revealed. Judge perceived ROAST / greenness</text><text fill="#000000" font-family="sans-serif" font-size="9" lengthAdjust="spacing" textLength="212.9106" x="230" y="636.1274">&#8212; NOT "premium", which is a market label and</text><text fill="#000000" font-family="sans-serif" font-size="9" lengthAdjust="spacing" textLength="212.6162" x="230" y="646.604">may not track roast at all. Record the premium</text><text fill="#000000" font-family="sans-serif" font-size="9" lengthAdjust="spacing" textLength="170.6177" x="230" y="657.0806">label separately as a second variable.</text><rect fill="#C58BC5" height="12.8047" style="stroke:none;stroke-width:1.0;" width="12" x="226" y="587.0156"/><line style="stroke:#C58BC5;stroke-width:1.0;" x1="226" x2="238" y1="587.0156" y2="587.0156"/><line style="stroke:#C58BC5;stroke-width:1.0;" x1="226" x2="238" y1="599.8203" y2="599.8203"/><line style="stroke:#C58BC5;stroke-width:1.0;" x1="226" x2="226" y1="587.0156" y2="599.8203"/><line style="stroke:#C58BC5;stroke-width:1.0;" x1="238" x2="238" y1="587.0156" y2="599.8203"/><rect fill="#7FB069" height="12.8047" style="stroke:none;stroke-width:1.0;" width="12" x="242" y="666.2031"/><line style="stroke:#7FB069;stroke-width:1.0;" x1="242" x2="254" y1="666.2031" y2="666.2031"/><line style="stroke:#7FB069;stroke-width:1.0;" x1="242" x2="254" y1="679.0078" y2="679.0078"/><line style="stroke:#7FB069;stroke-width:1.0;" x1="242" x2="242" y1="666.2031" y2="679.0078"/><line style="stroke:#7FB069;stroke-width:1.0;" x1="254" x2="254" y1="666.2031" y2="679.0078"/><polygon fill="#000000" points="248,683.0078,253,688.0078,248,693.0078,243,688.0078" style="stroke:#000000;stroke-width:1.0;"/><path d="M16,714.6172 L16,777 L267.6294,777 L267.6294,724.6172 L257.6294,714.6172 L16,714.6172 " fill="#FEFFDD" style="stroke:#181818;stroke-width:0.5;"/><path d="M257.6294,714.6172 L257.6294,724.6172 L267.6294,724.6172 L257.6294,714.6172 " fill="#FEFFDD" style="stroke:#181818;stroke-width:0.5;"/><text fill="#000000" font-family="sans-serif" font-size="9" lengthAdjust="spacing" textLength="230.6294" x="22" y="727.9712">&#9888; PARALLEL RESEARCH TRACK &#8212; deliberately OUT</text><text fill="#000000" font-family="sans-serif" font-size="9" lengthAdjust="spacing" textLength="196.418" x="22" y="738.4478">of the critical path. Cheap and worth doing,</text><text fill="#000000" font-family="sans-serif" font-size="9" lengthAdjust="spacing" textLength="187.6992" x="22" y="748.9243">but its result must NOT enter the shipped</text><text fill="#000000" font-family="sans-serif" font-size="9" lengthAdjust="spacing" textLength="180.0088" x="22" y="759.4009">metric before the freeze: you cannot be</text><text fill="#000000" font-family="sans-serif" font-size="9" lengthAdjust="spacing" textLength="194.9722" x="22" y="769.8774">post-research and still exploring the range.</text><rect fill="#CFCFCF" height="12.8047" style="stroke:none;stroke-width:1.0;" width="44" x="18" y="699.8125"/><line style="stroke:#CFCFCF;stroke-width:1.0;" x1="18" x2="62" y1="699.8125" y2="699.8125"/><line style="stroke:#CFCFCF;stroke-width:1.0;" x1="18" x2="62" y1="712.6172" y2="712.6172"/><line style="stroke:#CFCFCF;stroke-width:1.0;" x1="18" x2="18" y1="699.8125" y2="712.6172"/><line style="stroke:#CFCFCF;stroke-width:1.0;" x1="62" x2="62" y1="699.8125" y2="712.6172"/><text fill="#000000" font-family="Verdana" font-size="11" lengthAdjust="spacing" textLength="328.5283" x="18" y="51.2104">No-op bump, then Soret trim 440-460 -&gt; 448-460 + re-sign</text><text fill="#000000" font-family="Verdana" font-size="11" lengthAdjust="spacing" textLength="147.3237" x="34" y="140.8745">Opaque-oil test: measure f</text><text fill="#000000" font-family="Verdana" font-size="11" lengthAdjust="spacing" textLength="217.626" x="50" y="209.5854">Slide-in sample holder: design, print, fit</text><text fill="#000000" font-family="Verdana" font-size="11" lengthAdjust="spacing" textLength="230.1675" x="114" y="267.8198">Gates G1 + G2, settle the capillary recipe</text><text fill="#000000" font-family="Verdana" font-size="11" lengthAdjust="spacing" textLength="238.627" x="146" y="357.4839">Re-run green-vs-brown and green-vs-green</text><text fill="#000000" font-family="sans-serif" font-size="11" font-weight="bold" lengthAdjust="spacing" textLength="244.5459" x="144" y="436.6714">GO / NO-GO: is green-vs-green d &gt;= 3 ?</text><text fill="#000000" font-family="Verdana" font-size="11" lengthAdjust="spacing" textLength="210.2891" x="162" y="453.4761">Derive + WRITE DOWN the thresholds</text><text fill="#000000" font-family="sans-serif" font-size="11" font-weight="bold" lengthAdjust="spacing" textLength="137.0972" x="160" y="511.7104">THRESHOLDS FROZEN</text><text fill="#000000" font-family="Verdana" font-size="11" lengthAdjust="spacing" textLength="99.9023" x="226" y="528.5151">P3a: 8 oils, 24 fills</text><text fill="#000000" font-family="Verdana" font-size="11" lengthAdjust="spacing" textLength="126.3013" x="242" y="597.2261">Blind judging: 2 judges</text><text fill="#000000" font-family="Verdana" font-size="11" lengthAdjust="spacing" textLength="107.1104" x="258" y="676.4136">Analysis + write-up</text><text fill="#000000" font-family="sans-serif" font-size="11" font-weight="bold" lengthAdjust="spacing" textLength="169.7319" x="256" y="693.2183">FIRST PRESENTABLE STATE</text><text fill="#000000" font-family="Verdana" font-size="11" lengthAdjust="spacing" textLength="331.2515" x="66" y="710.0229">PARKED: calibration extension + 660-680 quiet-window test</text><text fill="#000000" font-family="sans-serif" font-size="10" lengthAdjust="spacing" textLength="12.4463" x="1.7769" y="786.2822">Tu</text><text fill="#000000" font-family="sans-serif" font-size="10" lengthAdjust="spacing" textLength="16.04" x="16" y="786.2822">We</text><text fill="#000000" font-family="sans-serif" font-size="10" lengthAdjust="spacing" textLength="12.4463" x="33.7769" y="786.2822">Th</text><text fill="#000000" font-family="sans-serif" font-size="10" lengthAdjust="spacing" textLength="9.8633" x="51.0684" y="786.2822">Fr</text><text fill="#989898" font-family="sans-serif" font-size="10" lengthAdjust="spacing" textLength="12.4756" x="65.7622" y="786.2822">Sa</text><text fill="#989898" font-family="sans-serif" font-size="10" lengthAdjust="spacing" textLength="12.6855" x="81.6572" y="786.2822">Su</text><text fill="#000000" font-family="sans-serif" font-size="10" lengthAdjust="spacing" textLength="14.7461" x="96.627" y="786.2822">Mo</text><text fill="#000000" font-family="sans-serif" font-size="10" lengthAdjust="spacing" textLength="12.4463" x="113.7769" y="786.2822">Tu</text><text fill="#000000" font-family="sans-serif" font-size="10" lengthAdjust="spacing" textLength="16.04" x="128" y="786.2822">We</text><text fill="#000000" font-family="sans-serif" font-size="10" lengthAdjust="spacing" textLength="12.4463" x="145.7769" y="786.2822">Th</text><text fill="#000000" font-family="sans-serif" font-size="10" lengthAdjust="spacing" textLength="9.8633" x="163.0684" y="786.2822">Fr</text><text fill="#989898" font-family="sans-serif" font-size="10" lengthAdjust="spacing" textLength="12.4756" x="177.7622" y="786.2822">Sa</text><text fill="#989898" font-family="sans-serif" font-size="10" lengthAdjust="spacing" textLength="12.6855" x="193.6572" y="786.2822">Su</text><text fill="#000000" font-family="sans-serif" font-size="10" lengthAdjust="spacing" textLength="14.7461" x="208.627" y="786.2822">Mo</text><text fill="#000000" font-family="sans-serif" font-size="10" lengthAdjust="spacing" textLength="12.4463" x="225.7769" y="786.2822">Tu</text><text fill="#000000" font-family="sans-serif" font-size="10" lengthAdjust="spacing" textLength="16.04" x="240" y="786.2822">We</text><text fill="#000000" font-family="sans-serif" font-size="10" lengthAdjust="spacing" textLength="12.7246" x="1.6377" y="800.2822">11</text><text fill="#000000" font-family="sans-serif" font-size="10" lengthAdjust="spacing" textLength="12.7246" x="17.6377" y="800.2822">12</text><text fill="#000000" font-family="sans-serif" font-size="10" lengthAdjust="spacing" textLength="12.7246" x="33.6377" y="800.2822">13</text><text fill="#000000" font-family="sans-serif" font-size="10" lengthAdjust="spacing" textLength="12.7246" x="49.6377" y="800.2822">14</text><text fill="#989898" font-family="sans-serif" font-size="10" lengthAdjust="spacing" textLength="12.7246" x="65.6377" y="800.2822">15</text><text fill="#989898" font-family="sans-serif" font-size="10" lengthAdjust="spacing" textLength="12.7246" x="81.6377" y="800.2822">16</text><text fill="#000000" font-family="sans-serif" font-size="10" lengthAdjust="spacing" textLength="12.7246" x="97.6377" y="800.2822">17</text><text fill="#000000" font-family="sans-serif" font-size="10" lengthAdjust="spacing" textLength="12.7246" x="113.6377" y="800.2822">18</text><text fill="#000000" font-family="sans-serif" font-size="10" lengthAdjust="spacing" textLength="12.7246" x="129.6377" y="800.2822">19</text><text fill="#000000" font-family="sans-serif" font-size="10" lengthAdjust="spacing" textLength="12.7246" x="145.6377" y="800.2822">20</text><text fill="#000000" font-family="sans-serif" font-size="10" lengthAdjust="spacing" textLength="12.7246" x="161.6377" y="800.2822">21</text><text fill="#989898" font-family="sans-serif" font-size="10" lengthAdjust="spacing" textLength="12.7246" x="177.6377" y="800.2822">22</text><text fill="#989898" font-family="sans-serif" font-size="10" lengthAdjust="spacing" textLength="12.7246" x="193.6377" y="800.2822">23</text><text fill="#000000" font-family="sans-serif" font-size="10" lengthAdjust="spacing" textLength="12.7246" x="209.6377" y="800.2822">24</text><text fill="#000000" font-family="sans-serif" font-size="10" lengthAdjust="spacing" textLength="12.7246" x="225.6377" y="800.2822">25</text><text fill="#000000" font-family="sans-serif" font-size="10" lengthAdjust="spacing" textLength="12.7246" x="241.6377" y="800.2822">26</text><text fill="#000000" font-family="sans-serif" font-size="12" font-weight="bold" lengthAdjust="spacing" textLength="85.418" x="85.291" y="815.1387">August 2026</text><!--SRC=[xLhTSXkt5RxdKvnnfnDfp9L4KPPLDd5AYIjPjaHoICffuybuG18aOIqN6m0hXkd4aqVeHQxQcxv0htlVH_6Jz3l0BaKnSiVJcRPEHx6Ix09O0ESxvtpdn_gTTSAugKYTeuaorht9ZBGoTMAOo3UOTBBo6VKpEN96Z2oz__4dSZD9f-Uz_e2wlRWVjmVDuukO-eFc8AQvIgHrEfLL4fO4sT5CZlD4xc2N4ptFHAfqIawJBRViBdV7UcHt-ztuvCq7hh0p7zCM7viPRQN_Tfj4EgPUfzcwR7OnZ_tzYeKsrogTqb2ChXCzhT9Y9etaE-D3aMLI6BvPE_xzW0RD_alQXHJd7QgL3_lbGrriuzROTy07QvKwxA8isTnCn4ZQXWSY4sv64wFdz8XVvz8PDIBhL9BGNDz8-uYbNP_ZUojdyJN4dEba39mCetpQwtmTjwjq8n8rXjHZqhcBz2IoOfubZ2Y-NCE6DnQKY27fHIhD8yBbtjNsejh-2eMnMDhmdKwJ9Rc5nZdAoRd501ve98nPOXSZHK9Eg6I7uXjfbf0KdxEqyjiSvobC3-L8v41HYj4C4ihiCyitp7B72rd2L7xdYXa-9yLKG4baqhWSUXZDH3gLORNEd1fXNuQmIbRxmP7809t0fKoUMfhd5fVKSsmnSTBWoh_rosx1mq60ZyRIg1j0vbLnTwEHDbbkonEMOS-XvANVonHF4nqif4IUJTHAt5AaIzB0n9j1ApT-ogkBujPNvsq006jNSoZBqjR-tlvXj7SKxHrkLyCzs5oW6noH0h8CLXEKOVCvAsz3KJWZyjV8OQQ696jjulS8IZKCNNMb1a5P8d3HcSwJCQNQopJCLU9OjoN0SuKBZdWpTi7tV_uh3HQwC85I-QntsfeBSmq0ZHplQd_KTgDGAWmYCceQuVzgeh0couU9ihDW_2nGy4rsaOboVD1nFfvAHxLwL7lYXICr8Qcmpc39T0RxPm-5jKs0lek2eR8Gi0XSLXZUfIUd4fODU1lqLjm8Yjx2VLbiby-J7Nw9dBsPVeYwTZ8igrJypInlZAkeP5cn0iQ88xqcHmauPLonURenKkaQ_HOiHPuZWytMQf0OMcdcKxOYLdc5SVtfH_p0qXAT6rky_f_zGCofaN0O-WAkD74BXceNZcUlAVmpJ7A9oM3jSod0b78EXU3BO54y2GCTuxE9688CWwyH6nrlomQfsE-2IHfbhokVMxTCvBEAZr4j9QP6pEcF5S8I7CmFHASwTMq1adWbeTPKh0RxwdlM6Tv_mB-huBJssUsAufrFeo6OnN_qG-NptU82jshUet_ydV9qcEZHTJ3z99-gDBZ3fwk_rsqTwGmQc6TLldPAVH0VeffHSpeus8iE3lSeUeR78__u66g9h9gctt34V3tedLz-Wt1ZuGerzkbACGI2OiDd7GA4NyL7JvyS7bVWouoZSteE93tnDCylg7VUVrbTSOQFIgoGWh56HlcOW2yyc6uccFwPu4OQ_kQP17p0D8Avb6RiRmrU7YWfUYOiNpbwbcWnffaFzQ_Y7emIyYAaC1EoyMXFYTGAKQVTYJfTEhwwx8RCfWf9h1fB7_6n7EVw-25Wjoh9GxZ0Vo4wSvQ3SISGVm62uyrlWts8Tq6EYKuIlR0x5MPsXcVDf6fiKlnTYFMVk2bzsCGwcK2-425e4c8Yedz10pG9HdGwYFk33IignWgM1L31hZYuGbVbz8QL7Hutwwt33Iixyu5uFU5em4_7q9ZFfd0f3iZ-YbYjWiqnQmNbfaNQ8uP8tFmSuj0rLkh9nCfLbhCGIH8DbnaipUjf1oicOA-j_fkmDy9uQniSjzNpJslwVjr7WY4Zd5pecLCOQHhCeh3QQWYYLOwY0QzcD-uDhdhn1cItmske1Q1As6wN_Cm_c_Lwwr_vPmD78qKfe5p5TLjuAOlByHQaZZHffDcNpNB79nObxWZcs1l9WIly0R4QDpjlj-6BOmMkHZPthoVibvw0Q9w9a7BzKjoXyZfOu5aDv7cs3wkIpYLoCx6L8vN9eDyp54tzKhdx8Gqi1zTKkr9cgTrYoSSunVk__CGNyhpMyFdD-dKutCuOQ9Kg93rVueFduPKt1mlg9ETQ0-_dtQOdxeNdOp5c7ksVD0S3gDJfWi_1O4jK07FKNLogwGoqYweDM_1TLAW9XOFssTCo2SDt0bL7SyMi9R5o5ES018OV-HHPEZo6917CZwmqnJ0xtzb-WnOIMIKu9uLj9ip5wm9kFOvgU_HhEcyXwqp7s-k6zxed8uuBFhU9RcmqD9ooiw2h8VyG5DQBUrVjJOKLWsiA2_efjLNCVuosEaNghX9BpOjUt6pzWPx75otQUgcmLo9DbM5tKXbfhWsgeYhrev1kR_lolDqPR1GpFfgc4YWFk9h0pweeNgz2VPd5TOl7z8xi9VK1L35KYN9Bcd9Mpg6Htb5jftu04_1HybrzvqdqX7NEkRCSty7wh0DQHB0zwpHuoxi0OwjdNr2TlYnSezFkd7M-GGn7EPG6M0EG1Qotd55dpfXWZ-zbaTcKDVJT4fh-HwpGyiKfEE6htlaWfbRdg_O6-4LqxCNnrvjSNmwkMTST65OBDiphwUdntk5lxY635lSMghH0hiN-CeQvXumiP4hmkGdFi7k7ell-qjXNnYZH_6fu8fOZ5g16v4kkhqVuuCnfBESedbrWz3jMCNZUY_lFEnUjVj43AT48p-i6KCXQMi3hRbqqwCYxIvNs3xpp5s1swytBkFapSbqDhqVEExlUBlaOXzsdG1YxU4fr6Y5ipHNg-s3IktH0TqROjzx_xK_KkHf4dTEetxpiNiGDOlPomUitsXi4-M-AAfoXJtVeb2SfywLqaeI-bvZAe0EJ9p8GmRjwL03Yrwu8SmtvuqJXvItO0pCDIC2FiW3mnLNhRDCOYx4rx4gmIl2A5HlGdJmvEZvvSa_IqHzXZQL-tBo8MsKlXlikYcqbv_AnQ3A5y64W1WfvfEul-AeisKZwpa-lq-mF0BY7EPMMeIlvy56XWqVS3rIeJdqWyXqFnnqqcR03S8aebY6ZDmArdT6GdQL4niUcZhkMlGw_7Ju87zkGgaXKCw7j6TAY6uGVxaRSmRoPYcHfSO77tWLbb6S1RqyELzqDn5UZQvW7Z4l4Lolk9m0GnFtDsi9Dml1TDokt_1dJXfPdqIYoKXXW6R3wv5EpRhFtCcurkC6aXaLUARy30rf-Uao7XtlHuT4UVPihwQ8574ClV15JuEG_BvLJBzca6FrGyLBERxh3AV-vnnsmldbn4ICFXrQQlPFdDEWrJrvwGnvBN5mMPWR-y8N9dR8vb2DqCfCYAr8rWyHvhE7Td3OCkLNhs8bidhZG26NtW9CLD6zd2bRWFI4Ki6lTqH1W6xJKEK1CGyUHSmjKvj7A6dn_qxU_vNSP9ERKZR_s3Q1rH_WT7drJ1uyVyRSG__4ktgVJQ7fer7noZPg7niP3O-FVQsmyj0GUMW8FBO7_LalWeTH-ABKVIks7KlkNMse_rAcVRftQvTyykRgy8124rqPj1xNZmSxJhJuGxSkCzfvIhTwe7JLgJ-a4MIlNbWVRbQspxWNvj0MfjuAtAOY83ROhB_ZNMdfvwjGSL-x0B5wqNfO35AStokZK_nB5YrUNjmiE3w9ZnKSQvgfNbvMMd0Z6Aav7UkmPvcfm6XrLBY1E3iO2xwML4urzpH9p_Ny2]--></g></svg>